<?xml version="1.0" encoding="UTF-8" standalone="no"?>
<!-- Created with Inkscape (http://www.inkscape.org/) -->

<svg
   xmlns:dc="http://purl.org/dc/elements/1.1/"
   xmlns:cc="http://creativecommons.org/ns#"
   xmlns:rdf="http://www.w3.org/1999/02/22-rdf-syntax-ns#"
   xmlns:svg="http://www.w3.org/2000/svg"
   xmlns="http://www.w3.org/2000/svg"
   xmlns:sodipodi="http://sodipodi.sourceforge.net/DTD/sodipodi-0.dtd"
   xmlns:inkscape="http://www.inkscape.org/namespaces/inkscape"
   version="1.0"
   width="600"
   height="600"
   id="svg1961"
   inkscape:version="0.48.1 r9760"
   sodipodi:docname="Zeichen_314.1.svg">
  <metadata
     id="metadata2963">
    <rdf:RDF>
      <cc:Work
         rdf:about="">
        <dc:format>image/svg+xml</dc:format>
        <dc:type
           rdf:resource="http://purl.org/dc/dcmitype/StillImage" />
        <dc:title />
      </cc:Work>
    </rdf:RDF>
  </metadata>
  <sodipodi:namedview
     pagecolor="#ffffff"
     bordercolor="#666666"
     borderopacity="1"
     objecttolerance="10"
     gridtolerance="10"
     guidetolerance="10"
     inkscape:pageopacity="0"
     inkscape:pageshadow="2"
     inkscape:window-width="1280"
     inkscape:window-height="976"
     id="namedview2961"
     showgrid="false"
     inkscape:zoom="0.39333333"
     inkscape:cx="300"
     inkscape:cy="338.80464"
     inkscape:window-x="26"
     inkscape:window-y="414"
     inkscape:window-maximized="0"
     inkscape:current-layer="svg1961" />
  <defs
     id="defs1963">
    <inkscape:perspective
       sodipodi:type="inkscape:persp3d"
       inkscape:vp_x="0 : 300 : 1"
       inkscape:vp_y="0 : 1000 : 0"
       inkscape:vp_z="600 : 300 : 1"
       inkscape:persp3d-origin="300 : 200 : 1"
       id="perspective2965" />
    <inkscape:perspective
       id="perspective3000"
       inkscape:persp3d-origin="0.5 : 0.33333333 : 1"
       inkscape:vp_z="1 : 0.5 : 1"
       inkscape:vp_y="0 : 1000 : 0"
       inkscape:vp_x="0 : 0.5 : 1"
       sodipodi:type="inkscape:persp3d" />
  </defs>
  <path
     d="M 46.33899,592.51787 C 37.64007,592.49001 24.67178,587.49632 18.75874,580.81716 L 15.83356,577.4741 L 13.32627,573.71315 L 10.81897,569.53433 L 9.14744,564.93762 L 8.31168,560.34091 L 7.47591,555.7442 L 7.47591,46.34529 C 8.2072,33.72524 10.97219,28.46688 18.75874,18.76504 L 22.51968,15.83986 L 26.28063,13.33257 L 30.45945,10.82527 L 35.05616,9.15374 L 44.24958,7.48221 L 553.23061,7.48221 C 564.994,7.9767 572.09104,10.79741 580.81086,18.76504 L 584.15392,22.52598 L 586.66122,26.28693 L 588.75063,30.46575 L 590.42216,35.06246 L 591.67581,39.65917 L 592.51157,44.25588 L 592.51157,553.23691 C 592.81802,561.03738 587.46912,576.10901 580.81086,580.81716 L 577.4678,584.16022 L 573.70685,586.66752 L 569.52803,588.75693 L 564.93132,590.42846 L 560.33461,591.68211 L 555.7379,592.51787 L 46.33899,592.51787"
     style="fill:#fffefe;fill-rule:evenodd;stroke:black;stroke-opacity:1"
     id="path46" />
  <path
     d="M 52.971361,575.52467 C 45.58591,575.61969 38.343001,572.41571 33.014348,567.37894 L 30.570626,564.93522 L 28.534199,561.67693 L 27.312339,558.82592 L 26.090477,555.56764 L 25.27591,552.30935 L 24.868617,549.05106 L 24.461334,547.01463 L 24.461334,52.976521 C 25.61531,46.181634 27.142634,37.526799 33.014348,33.019507 L 35.458059,30.575785 L 38.309063,28.539358 L 44.82564,26.095637 L 48.083929,25.28107 L 51.342216,24.873776 L 52.971361,24.473276 L 547.00947,24.473276 C 554.25916,25.484711 562.37772,27.168152 567.37377,33.02629 L 569.4102,35.470012 L 571.44663,38.314223 L 573.07577,41.572511 L 574.29763,44.8308 L 575.11221,48.089087 L 575.5195,51.347376 L 575.5195,547.01463 C 575.83175,554.60372 572.29514,561.79912 567.37377,567.37894 L 564.93005,569.41537 L 561.67177,571.4518 L 558.82076,573.08094 L 555.56247,574.3028 L 552.30418,575.11738 L 549.04589,575.52467 L 52.971361,575.52467"
     style="fill:none;fill-rule:evenodd;stroke:black;stroke-width:15;stroke-miterlimit:4;stroke-dasharray:none"
     id="path50" />
  <path
     d="M 46.33899,592.51787 L 44.24958,592.51787 M 44.24958,592.51787 L 39.65287,591.68211 M 39.65287,591.68211 L 35.05616,590.42846 M 35.05616,590.42846 L 30.45945,588.75693 M 30.45945,588.75693 L 26.28063,586.66752 M 26.28063,586.66752 L 22.51968,584.16022 M 22.51968,584.16022 L 18.75874,580.81716 M 18.75874,580.81716 L 15.83356,577.4741 M 15.83356,577.4741 L 13.32627,573.71315 M 13.32627,573.71315 L 10.81897,569.53433 M 10.81897,569.53433 L 9.14744,564.93762 M 9.14744,564.93762 L 8.31168,560.34091 M 8.31168,560.34091 L 7.47591,555.7442 M 7.47591,555.7442 L 7.47591,553.23691 L 7.47591,46.34529 L 7.47591,44.25588 M 7.47591,44.25588 L 8.31168,39.65917 M 8.31168,39.65917 L 9.14744,35.06246 M 9.14744,35.06246 L 10.81897,30.46575 M 10.81897,30.46575 L 13.32627,26.28693 M 13.32627,26.28693 L 15.83356,22.52598 M 15.83356,22.52598 L 18.75874,18.76504 M 18.75874,18.76504 L 22.51968,15.83986 M 22.51968,15.83986 L 26.28063,13.33257 M 26.28063,13.33257 L 30.45945,10.82527 M 30.45945,10.82527 L 35.05616,9.15374 M 35.05616,9.15374 L 39.65287,8.31798 L 44.24958,7.48221 M 44.24958,7.48221 L 46.33899,7.48221 L 553.23061,7.48221 L 555.7379,7.48221 M 555.7379,7.48221 L 560.33461,8.31798 L 564.93132,9.15374 M 564.93132,9.15374 L 569.52803,10.82527 M 569.52803,10.82527 L 573.70685,13.33257 M 573.70685,13.33257 L 577.4678,15.83986 M 577.4678,15.83986 L 580.81086,18.76504 M 580.81086,18.76504 L 584.15392,22.52598 M 584.15392,22.52598 L 586.66122,26.28693 M 586.66122,26.28693 L 588.75063,30.46575 M 588.75063,30.46575 L 590.42216,35.06246 M 590.42216,35.06246 L 591.67581,39.65917 M 591.67581,39.65917 L 592.51157,44.25588 M 592.51157,44.25588 L 592.51157,46.34529 L 592.51157,553.23691 L 592.51157,555.7442 M 592.51157,555.7442 L 591.67581,560.34091 M 591.67581,560.34091 L 590.42216,564.93762 M 590.42216,564.93762 L 588.75063,569.53433 M 588.75063,569.53433 L 586.66122,573.71315 M 586.66122,573.71315 L 584.15392,577.4741 M 584.15392,577.4741 L 580.81086,580.81716 L 577.4678,584.16022 M 577.4678,584.16022 L 573.70685,586.66752 M 573.70685,586.66752 L 569.52803,588.75693 M 569.52803,588.75693 L 564.93132,590.42846 M 564.93132,590.42846 L 560.33461,591.68211 M 560.33461,591.68211 L 555.7379,592.51787 M 555.7379,592.51787 L 553.23061,592.51787 M 553.23061,592.51787 L 46.33899,592.51787"
     id="path48" />
  <path
     d="M 164.18189,540.70043 L 164.18189,530.25336 L 201.37344,469.66038 L 165.43554,469.66038 L 165.43554,458.79543 L 216.8351,458.79543 L 216.8351,467.98885 L 179.22567,528.99971 L 216.8351,528.99971 L 216.8351,540.70043 L 164.18189,540.70043 z M 228.53581,511.86653 C 226.31407,489.76054 226.30014,461.89473 254.02665,458.37755 C 262.17536,457.08212 271.99561,459.96551 277.84596,465.89944 C 285.38178,474.04815 285.29124,476.74349 287.03938,487.21145 C 288.89896,510.02088 288.89896,536.54946 261.13066,541.11831 C 243.92086,543.26344 227.8881,529.33402 228.53581,511.86653 z M 240.65441,511.86653 C 242.12396,494.98407 234.19812,475.55949 255.2803,470.49615 C 265.2677,469.38179 274.55165,476.90368 274.5029,487.21145 C 274.93471,500.30511 279.56625,526.00489 259.87701,528.58183 C 249.82693,530.2464 240.5569,522.02804 240.65441,511.86653 z M 302.91892,540.70043 L 302.91892,458.79543 L 314.61963,458.79543 L 351.81119,517.299 L 351.81119,458.79543 L 364.34766,458.79543 L 364.34766,540.70043 L 352.64695,540.70043 L 315.4554,482.19686 L 315.4554,540.70043 L 302.91892,540.70043 z M 383.15238,540.70043 L 383.15238,458.79543 L 435.80559,458.79543 L 435.80559,470.49615 L 395.68886,470.49615 L 395.68886,493.89757 L 429.95523,493.89757 L 429.95523,504.76252 L 395.68886,504.76252 L 395.68886,528.99971 L 435.80559,528.99971 L 435.80559,540.70043 L 383.15238,540.70043"
     style="fill:black;fill-rule:evenodd;stroke:none"
     id="path62" />
  <path
     d="m 138.62757,70.922552 c -9.25488,-0.404968 -14.53719,5.913607 -14.18941,16.024264 l 0,319.625124 c 0.0369,6.81647 2.93387,14.99831 12.34504,15.16406 l 326.13401,-0.0246 c 9.41117,-0.16575 12.33293,-8.34759 12.36964,-15.16405 l 0,-319.649711 c 0.34768,-10.110648 -4.93463,-16.429231 -14.18941,-16.024264 l -322.46987,0.04919 z"
     style="fill:#154889;fill-opacity:1;fill-rule:evenodd;stroke:none"
     id="path3661" />
  <path
     d="m 249.39375,154.96937 0,82.78821 57.80967,0 c 14.45233,1e-4 25.23294,-4.34484 32.34174,-13.03482 7.10861,-8.68959 10.66292,-18.14277 10.66311,-28.35933 -1.9e-4,-15.50057 -5.58137,-26.89131 -16.74362,-34.1722 -7.16765,-4.81438 -16.3914,-7.22167 -27.67116,-7.22186 l -56.39974,0 z m -38.95111,219.82914 0,-256.64352 93.2358,0 c 9.98733,2.5e-4 19.59292,1.05712 28.81676,3.1706 9.22356,2.11397 18.82915,7.04604 28.81676,14.79619 7.75478,5.98922 14.33473,14.2386 19.73993,24.74845 5.40474,10.51013 8.10729,22.69348 8.10748,36.55006 -1.9e-4,18.31931 -6.84456,35.75763 -20.53303,52.31516 -13.68884,16.55772 -33.6931,24.83653 -60.01289,24.83644 l -59.2197,0 0,100.22662 -38.95111,0 z"
     style="font-size:458.69091797px;font-style:normal;font-variant:normal;font-weight:normal;font-stretch:normal;text-align:center;line-height:100%;writing-mode:lr-tb;text-anchor:middle;fill:#ffffff;fill-opacity:1;stroke:none;font-family:DIN 1451 Mittelschrift"
     id="text5426" />
</svg>
