<?xml version="1.0" encoding="UTF-8" standalone="no"?>
<svg
   xmlns:dc="http://purl.org/dc/elements/1.1/"
   xmlns:cc="http://creativecommons.org/ns#"
   xmlns:rdf="http://www.w3.org/1999/02/22-rdf-syntax-ns#"
   xmlns:svg="http://www.w3.org/2000/svg"
   xmlns="http://www.w3.org/2000/svg"
   viewBox="0 0 731.59644 613.42297"
   height="613.42297"
   width="731.59644"
   xml:space="preserve"
   version="1.1"
   id="svg8617"><metadata
     id="metadata8623"><rdf:RDF><cc:Work
         rdf:about=""><dc:format>image/svg+xml</dc:format><dc:type
           rdf:resource="http://purl.org/dc/dcmitype/StillImage" /><dc:title></dc:title></cc:Work></rdf:RDF></metadata><defs
     id="defs8621" /><g
     transform="matrix(1.25,0,0,-1.25,0,613.42297)"
     id="g8625"><g
       id="g8627"><path
         id="path8629"
         style="fill:#ffffff;fill-opacity:1;fill-rule:nonzero;stroke:none"
         d="M 23.387,0.481 C 10.734,0.481 0.492,10.734 0.492,23.387 l 0,443.965 c 0,12.652 10.242,22.906 22.895,22.906 l 538.504,0 c 12.64,0 22.894,-10.254 22.894,-22.906 l 0,-443.965 c 0,-12.653 -10.254,-22.906 -22.894,-22.906" /><path
         id="path8631"
         style="fill:#000000;fill-opacity:1;fill-rule:nonzero;stroke:none"
         d="m 0.973,23.387 0,443.965 c 0,12.359 10.054,22.414 22.414,22.414 l 538.504,0 c 12.359,0 22.402,-10.055 22.402,-22.414 l 0,-443.965 c 0,-12.348 -10.043,-22.414 -22.402,-22.414 l -538.504,0 C 11.027,0.973 0.973,11.039 0.973,23.387 Z M 23.387,490.738 C 10.492,490.738 0,480.246 0,467.352 L 0,23.387 C 0,10.492 10.492,0 23.387,0 l 538.504,0 c 12.89,0 23.386,10.492 23.386,23.387 l 0,443.965 c 0,12.894 -10.496,23.386 -23.386,23.386" /><path
         id="path8633"
         style="fill:#154889;fill-opacity:1;fill-rule:nonzero;stroke:none"
         d="m 23.387,10.027 c -7.379,0 -13.36,5.981 -13.36,13.36 l 0,443.965 c 0,7.379 5.981,13.359 13.36,13.359 l 538.504,0 c 7.379,0 13.343,-5.98 13.343,-13.359 l 0,-443.965 c 0,-7.379 -5.964,-13.36 -13.343,-13.36" /><path
         id="path8635"
         style="fill:#ffffff;fill-opacity:1;fill-rule:nonzero;stroke:none"
         d="m 214.699,78.637 99.774,95.738 -27.289,16.633 c -1.782,1.105 -2.356,3.449 -1.262,5.262 0.558,0.906 1.476,1.531 2.516,1.742 l 77.57,15.515 c 2.066,0.414 4.078,-0.918 4.488,-2.996 0.098,-0.492 0.098,-1 0,-1.492 l -15.512,-77.57 c -0.414,-2.067 -2.425,-3.41 -4.488,-2.996 -1.051,0.211 -1.957,0.851 -2.519,1.758 l -16.633,27.273 -95.735,-99.773" /><path
         id="path8637"
         style="fill:#ffffff;fill-opacity:1;fill-rule:nonzero;stroke:none"
         d="m 67.266,366.234 0,66.774 9.535,0 19.07,-43.52 19.082,43.52 9.551,0 0,-66.774 -10.137,0 0,42.336 -14.316,-32.8 -8.348,0 -14.305,32.8 0,-42.336" /><path
         id="path8639"
         style="fill:#ffffff;fill-opacity:1;fill-rule:nonzero;stroke:none"
         d="m 165.039,387.106 -13.703,0 c -3.289,0 -5.965,-2.68 -5.965,-5.969 0,-3.289 2.676,-5.965 5.965,-5.965 l 7.738,0 c 3.301,0 5.965,2.676 5.965,5.965 l 0,5.969 z m 9.535,-20.872 -9.535,0 0,4.915 c -1.676,-3.036 -4.875,-4.915 -8.348,-4.915 l -5.968,0 c -7.895,0 -14.301,6.407 -14.301,14.305 0,7.91 6.406,14.317 14.301,14.317 l 14.316,0 0,4.765 c 0,2.61 -1.875,4.836 -4.434,5.289 -3.382,0.586 -6.832,0.586 -10.199,0 -1.679,-0.293 -3.133,-1.371 -3.89,-2.902 l -7.539,5.965 c 2.265,3.343 5.793,5.633 9.777,6.34 4.461,0.769 9.027,0.769 13.488,0 7.125,-1.254 12.332,-7.446 12.332,-14.692" /><path
         id="path8641"
         style="fill:#ffffff;fill-opacity:1;fill-rule:nonzero;stroke:none"
         d="m 198.426,423.473 -9.535,0 0,9.535 9.535,0 0,-9.535 z m -9.535,-57.239 0,47.704 9.535,0 0,-47.704" /><path
         id="path8643"
         style="fill:#ffffff;fill-opacity:1;fill-rule:nonzero;stroke:none"
         d="m 212.742,366.234 0,47.704 9.535,0 0,-5.395 c 5.594,6.914 15.727,8.004 22.653,2.398 3.769,-3.05 5.965,-7.644 5.965,-12.519 l 0,-32.188 -9.536,0 0,29.219 c 0,5.262 -4.273,9.535 -9.547,9.535 -5.261,0 -9.535,-4.273 -9.535,-9.535 l 0,-29.219" /><path
         id="path8645"
         style="fill:#ffffff;fill-opacity:1;fill-rule:nonzero;stroke:none"
         d="m 261.629,366.234 0,7.754 23.851,31.602 -22.652,0 0,8.348 34.57,0 0,-7.164 -23.836,-31.602 23.836,0 0,-8.938" /><path
         id="path8647"
         style="fill:#ffffff;fill-opacity:1;fill-rule:nonzero;stroke:none"
         d="m 83.965,261.297 -16.699,66.785 10.734,0 10.719,-47.703 13.133,47.703 7.148,0 13.117,-47.703 10.735,47.703 10.722,0 -16.687,-66.785 -8.949,0 -12.52,48.301 -12.516,-48.301" /><path
         id="path8649"
         style="fill:#ffffff;fill-opacity:1;fill-rule:nonzero;stroke:none"
         d="m 161.457,318.535 -9.535,0 0,9.547 9.535,0 0,-9.547 z m -9.535,-57.238 0,47.703 9.535,0 0,-47.703" /><path
         id="path8651"
         style="fill:#ffffff;fill-opacity:1;fill-rule:nonzero;stroke:none"
         d="m 184.125,289.914 20.266,0 c 0,5.594 -4.539,10.137 -10.133,10.137 -5.606,0 -10.133,-4.543 -10.133,-10.137 z m 29.801,-8.348 -29.801,0 0,-1.187 c 0,-4.141 2.516,-7.871 6.363,-9.414 5.301,-2.117 11.375,-0.641 15.09,3.703 l 7.242,-6.219 c -6.379,-7.418 -16.777,-9.976 -25.875,-6.34 -7.468,2.997 -12.371,10.227 -12.371,18.27 l 0,9.535 c 0,10.867 8.817,19.684 19.684,19.684 10.867,0 19.668,-8.817 19.668,-19.684" /><path
         id="path8653"
         style="fill:#ffffff;fill-opacity:1;fill-rule:nonzero;stroke:none"
         d="m 223.477,268.941 6.722,6.766 c 5.567,-5.543 13.824,-7.312 21.188,-4.57 2.465,0.933 3.718,3.676 2.785,6.14 -0.652,1.77 -2.305,2.969 -4.168,3.09 l -10.133,0.641 c -7.887,0.492 -13.879,7.281 -13.387,15.168 0.387,6.269 4.821,11.558 10.934,13.023 8.898,2.129 18.258,0.051 25.41,-5.66 l -5.953,-7.445 c -4.848,3.863 -11.199,5.273 -17.23,3.824 -2.559,-0.613 -4.129,-3.184 -3.516,-5.742 0.492,-2.051 2.25,-3.527 4.34,-3.649 l 10.121,-0.64 c 7.898,-0.492 13.89,-7.281 13.41,-15.168 -0.359,-5.633 -3.98,-10.531 -9.27,-12.504 -10.839,-4.063 -23.05,-1.438 -31.253,6.726" /><path
         id="path8655"
         style="fill:#ffffff;fill-opacity:1;fill-rule:nonzero;stroke:none"
         d="m 285.48,279.781 c 0,-5.261 4.274,-9.535 9.536,-9.535 5.261,0 9.535,4.274 9.535,9.535 l 0,10.735 c 0,5.273 -4.274,9.535 -9.535,9.535 -5.262,0 -9.536,-4.262 -9.536,-9.535 l 0,-10.735 z m -9.546,-18.484 0,66.785 9.546,0 0,-24.476 c 5.594,6.925 15.727,8.003 22.625,2.41 3.797,-3.051 5.993,-7.657 5.993,-12.52 l 0,-16.699 c 0,-8.883 -7.203,-16.086 -16.086,-16.086 -4.875,0 -9.469,2.184 -12.532,5.98 l 0,-5.394" /><path
         id="path8657"
         style="fill:#ffffff;fill-opacity:1;fill-rule:nonzero;stroke:none"
         d="m 353.453,282.164 -13.719,0 c -3.289,0 -5.964,-2.664 -5.964,-5.965 0,-3.289 2.675,-5.953 5.964,-5.953 l 7.75,0 c 3.305,0 5.969,2.664 5.969,5.953 l 0,5.965 z m 9.535,-20.867 -9.535,0 0,4.926 c -1.691,-3.035 -4.875,-4.926 -8.351,-4.926 l -5.965,0 c -7.899,0 -14.305,6.406 -14.305,14.316 0,7.895 6.406,14.301 14.305,14.301 l 14.316,0 0,4.781 c 0,2.598 -1.879,4.821 -4.437,5.274 -3.383,0.597 -6.844,0.597 -10.215,0 -1.676,-0.293 -3.113,-1.371 -3.875,-2.891 l -7.551,5.953 c 2.277,3.356 5.809,5.649 9.789,6.34 4.449,0.774 9.031,0.774 13.477,0 7.152,-1.25 12.347,-7.445 12.347,-14.676" /><path
         id="path8659"
         style="fill:#ffffff;fill-opacity:1;fill-rule:nonzero;stroke:none"
         d="m 404.723,279.781 0,10.735 c 0,5.273 -4.274,9.535 -9.535,9.535 -5.274,0 -9.547,-4.262 -9.547,-9.535 l 0,-10.735 c 0,-5.261 4.273,-9.535 9.547,-9.535 5.261,0 9.535,4.274 9.535,9.535 z m 9.535,-18.484 -9.535,0 0,5.394 c -5.578,-6.925 -15.727,-7.992 -22.641,-2.41 -3.781,3.063 -5.977,7.657 -5.977,12.516 l 0,16.699 c 0,8.883 7.204,16.102 16.098,16.102 4.863,0 9.469,-2.196 12.52,-5.992 l 0,24.476 9.535,0" /><path
         id="path8661"
         style="fill:#ffffff;fill-opacity:1;fill-rule:nonzero;stroke:none"
         d="m 436.922,289.914 20.269,0 c 0,5.594 -4.539,10.137 -10.132,10.137 -5.594,0 -10.137,-4.543 -10.137,-10.137 z m 29.82,-8.348 -29.82,0 0,-1.187 c 0,-4.141 2.519,-7.871 6.367,-9.414 5.301,-2.117 11.375,-0.641 15.102,3.703 l 7.23,-6.219 c -6.379,-7.418 -16.777,-9.976 -25.875,-6.34 -7.469,2.997 -12.359,10.227 -12.359,18.27 l 0,9.535 c 0,10.867 8.804,19.684 19.672,19.684 10.867,0 19.683,-8.817 19.683,-19.684" /><path
         id="path8663"
         style="fill:#ffffff;fill-opacity:1;fill-rule:nonzero;stroke:none"
         d="m 479.844,261.297 0,47.703 9.551,0 0,-5.394 c 5.578,6.925 15.726,8.003 22.636,2.41 3.785,-3.051 5.969,-7.657 5.969,-12.52 l 0,-32.199 -9.523,0 0,29.219 c 0,5.273 -4.289,9.535 -9.547,9.535 -5.274,0 -9.535,-4.262 -9.535,-9.535 l 0,-29.219" /></g></g></svg>